<svg width="149.938538" height="140.000000" viewBox="0 0 149.939 140" fill="none" xmlns="http://www.w3.org/2000/svg" xmlns:xlink="http://www.w3.org/1999/xlink">
	<desc>
			Created with Pixso.
	</desc>
	<defs/>
	<path id="Vector" d="M0.01 99.8C0.02 99.85 0.03 99.9 0.06 99.96C0.07 99.99 0.08 100.03 0.09 100.06L11.49 119.81L11.52 119.84C11.54 119.87 11.56 119.9 11.59 119.94C11.63 119.99 11.68 120.02 11.72 120.05C11.75 120.07 11.77 120.1 11.8 120.12C11.82 120.13 11.83 120.13 11.84 120.13C11.96 120.2 12.08 120.23 12.21 120.23L57.35 120.23L68.52 139.57L68.55 139.6C68.57 139.63 68.59 139.66 68.62 139.7C68.65 139.74 68.7 139.78 68.75 139.81C68.78 139.83 68.8 139.86 68.83 139.88C68.84 139.89 68.85 139.89 68.87 139.89C68.98 139.95 69.11 139.99 69.24 139.99L137.67 139.99C137.81 139.99 137.94 139.95 138.06 139.89L138.14 139.83C138.23 139.77 138.31 139.7 138.37 139.62C138.38 139.6 138.41 139.59 138.42 139.57L149.82 119.81C149.83 119.79 149.83 119.78 149.84 119.76C149.86 119.73 149.88 119.7 149.88 119.66C149.89 119.62 149.9 119.59 149.91 119.55C149.92 119.52 149.92 119.48 149.92 119.44C149.92 119.42 149.93 119.41 149.93 119.39C149.93 119.37 149.92 119.36 149.92 119.34C149.92 119.3 149.91 119.27 149.91 119.23C149.91 119.19 149.89 119.16 149.88 119.12C149.87 119.09 149.86 119.06 149.84 119.02C149.83 119 149.83 118.99 149.82 118.97L127.26 79.89L138.42 60.55C138.42 60.53 138.42 60.52 138.44 60.5C138.45 60.47 138.47 60.44 138.48 60.4C138.49 60.36 138.5 60.33 138.5 60.29C138.51 60.26 138.52 60.22 138.52 60.18C138.52 60.16 138.53 60.15 138.53 60.13C138.53 60.11 138.52 60.1 138.52 60.08C138.52 60.04 138.5 60.01 138.5 59.97C138.5 59.93 138.49 59.9 138.48 59.86C138.46 59.83 138.45 59.79 138.44 59.76C138.42 59.74 138.42 59.73 138.42 59.71L104.21 0.43C104.19 0.4 104.16 0.38 104.14 0.35C104.11 0.3 104.07 0.26 104.03 0.22C103.99 0.19 103.95 0.16 103.9 0.13C103.86 0.1 103.81 0.08 103.76 0.06C103.7 0.04 103.64 0.03 103.58 0.02C103.55 0.02 103.52 0 103.48 0L80.66 0C80.64 0 80.63 0.01 80.61 0.01C80.57 0.01 80.54 0.02 80.5 0.02L80.38 0.05C80.35 0.06 80.31 0.08 80.28 0.09C80.25 0.1 80.25 0.1 80.23 0.11C80.22 0.12 80.21 0.13 80.19 0.14C80.16 0.16 80.13 0.18 80.1 0.21C80.07 0.23 80.05 0.26 80.02 0.29C80 0.32 79.97 0.35 79.95 0.38C79.94 0.39 79.93 0.41 79.92 0.42L57.36 39.51L35.04 39.51C35.02 39.51 35.01 39.52 34.99 39.52C34.95 39.52 34.92 39.53 34.88 39.53C34.84 39.53 34.8 39.55 34.77 39.56C34.74 39.58 34.7 39.59 34.67 39.6C34.65 39.61 34.64 39.61 34.62 39.62C34.6 39.63 34.6 39.64 34.58 39.65C34.55 39.67 34.52 39.7 34.49 39.72C34.46 39.75 34.43 39.78 34.41 39.8C34.39 39.83 34.36 39.86 34.34 39.89C34.33 39.91 34.32 39.92 34.31 39.93L0.1 99.22C0.08 99.25 0.07 99.28 0.07 99.32C0.04 99.37 0.03 99.42 0.02 99.48C0 99.53 -0.01 99.58 0 99.64C-0.01 99.69 0 99.74 0.01 99.8ZM102.99 1.7L136.24 59.28L115.38 59.28L82.12 1.7L102.99 1.7ZM114.4 98.8L93.53 98.8L115.37 60.96L136.24 60.96L114.4 98.8ZM80.66 2.54L113.91 60.12L92.07 97.96L81.64 79.88L92.81 60.54C92.82 60.52 92.82 60.51 92.83 60.49C92.85 60.46 92.86 60.43 92.87 60.39C92.88 60.35 92.89 60.32 92.9 60.28C92.91 60.25 92.91 60.21 92.91 60.17C92.91 60.15 92.92 60.14 92.92 60.12C92.92 60.1 92.91 60.09 92.91 60.07C92.91 60.03 92.9 60 92.9 59.96C92.9 59.92 92.88 59.89 92.87 59.85C92.86 59.82 92.85 59.78 92.83 59.75C92.82 59.73 92.82 59.72 92.81 59.7L81.39 39.94C81.37 39.91 81.34 39.89 81.32 39.86C81.29 39.82 81.25 39.78 81.21 39.73C81.17 39.7 81.13 39.67 81.08 39.64C81.04 39.62 80.99 39.59 80.94 39.57C80.89 39.55 80.83 39.54 80.77 39.54C80.74 39.54 80.7 39.52 80.67 39.52L59.32 39.52L80.66 2.54ZM57.86 41.21L80.18 41.21L90.62 59.28L46.94 59.28L36.5 41.21L57.86 41.21ZM35.04 42.05L45.47 60.12L12.22 117.7L1.8 99.64L35.04 42.05ZM13.69 118.54L46.94 60.96L90.62 60.96L80.18 79.04L57.86 79.04C57.84 79.04 57.83 79.05 57.81 79.05C57.77 79.05 57.74 79.06 57.7 79.06L57.58 79.09C57.55 79.1 57.51 79.12 57.48 79.13C57.45 79.14 57.45 79.14 57.43 79.15C57.42 79.16 57.4 79.17 57.39 79.18C57.35 79.2 57.32 79.22 57.3 79.25C57.27 79.27 57.24 79.3 57.22 79.33C57.2 79.36 57.17 79.39 57.15 79.42C57.14 79.43 57.12 79.44 57.12 79.46L45.71 99.22C45.69 99.25 45.68 99.28 45.68 99.32C45.66 99.37 45.64 99.42 45.63 99.48C45.62 99.53 45.62 99.58 45.62 99.64C45.62 99.69 45.62 99.74 45.63 99.8C45.64 99.85 45.66 99.9 45.68 99.96C45.69 99.99 45.7 100.03 45.71 100.06L56.39 118.54L13.69 118.54ZM137.22 138.3L70.73 138.3L81.15 120.23L147.64 120.23L137.22 138.3ZM69.27 137.46L47.43 99.64L57.87 81.56L79.7 119.38L69.27 137.46ZM147.64 118.54L81.15 118.54L59.32 80.72L80.18 80.72L91.35 100.06L91.38 100.09C91.4 100.12 91.43 100.16 91.45 100.19C91.49 100.23 91.53 100.27 91.58 100.3C91.61 100.32 91.63 100.35 91.66 100.37C91.67 100.37 91.69 100.38 91.7 100.38C91.82 100.44 91.94 100.47 92.07 100.48L114.89 100.48C115.02 100.47 115.15 100.44 115.27 100.38L115.36 100.32C115.44 100.26 115.52 100.19 115.58 100.11C115.59 100.09 115.62 100.08 115.63 100.06L126.31 81.56L147.64 118.54Z" fill="#FFFFFF" fill-opacity="1.000000" fill-rule="nonzero"/>
</svg>
