<svg width="139.968750" height="121.437500" viewBox="0 0 139.969 121.438" fill="none" xmlns="http://www.w3.org/2000/svg" xmlns:xlink="http://www.w3.org/1999/xlink">
	<desc>
			Created with Pixso.
	</desc>
	<defs>
		<clipPath id="clip2_75">
			<rect id="svg" width="139.968750" height="121.437500" fill="white" fill-opacity="0"/>
		</clipPath>
	</defs>
	<g clip-path="url(#clip2_75)">
		<path id="Vector" d="M0.02 108.18C0.03 108.24 0.04 108.29 0.07 108.33C0.07 108.37 0.08 108.4 0.1 108.42L7.37 121.04L7.4 121.07C7.42 121.1 7.45 121.13 7.47 121.16C7.51 121.2 7.55 121.23 7.59 121.27C7.62 121.29 7.63 121.32 7.66 121.33C7.67 121.34 7.69 121.34 7.7 121.34C7.81 121.4 7.93 121.43 8.05 121.43L131.89 121.43C132.01 121.43 132.13 121.4 132.24 121.34C132.27 121.32 132.29 121.3 132.32 121.28C132.4 121.23 132.47 121.16 132.52 121.08C132.53 121.06 132.55 121.05 132.57 121.03L139.85 108.41C139.86 108.4 139.86 108.38 139.87 108.37C139.89 108.34 139.91 108.31 139.91 108.27C139.92 108.24 139.93 108.2 139.94 108.17C139.95 108.14 139.96 108.11 139.95 108.07C139.95 108.05 139.96 108.04 139.96 108.02C139.96 108 139.95 107.99 139.95 107.97C139.95 107.95 139.94 107.9 139.94 107.87C139.94 107.84 139.92 107.8 139.91 107.77C139.9 107.74 139.89 107.71 139.87 107.67C139.86 107.66 139.86 107.64 139.85 107.63L77.94 0.39C77.92 0.36 77.9 0.34 77.88 0.32C77.85 0.27 77.81 0.23 77.77 0.2C77.69 0.14 77.61 0.09 77.52 0.05C77.47 0.03 77.42 0.02 77.36 0.02C77.33 0.02 77.3 0 77.26 0L62.7 0C62.68 0 62.67 0.01 62.65 0.01C62.63 0.01 62.58 0.02 62.55 0.02L62.44 0.05C62.4 0.06 62.37 0.07 62.34 0.09C62.33 0.09 62.31 0.1 62.3 0.1C62.29 0.11 62.27 0.12 62.26 0.13C62.23 0.14 62.2 0.16 62.18 0.19C62.15 0.21 62.12 0.24 62.1 0.27C62.08 0.3 62.06 0.32 62.04 0.35C62.02 0.36 62.01 0.37 62.01 0.39L0.09 107.64C0.07 107.67 0.06 107.7 0.05 107.73C0.03 107.78 0.02 107.83 0.01 107.88C0 107.93 -0.01 107.98 6.1e-5 108.03C0.01 108.08 0.01 108.13 0.02 108.18ZM76.81 1.57L137.82 107.24L31.28 107.24L37.65 96.21L117.34 96.21C117.46 96.21 117.59 96.17 117.69 96.11C117.7 96.1 117.72 96.11 117.73 96.1C117.76 96.08 117.78 96.06 117.8 96.04C117.84 96 117.88 95.97 117.92 95.93C117.95 95.89 117.98 95.85 118 95.81C118.03 95.77 118.05 95.72 118.06 95.68C118.08 95.63 118.09 95.57 118.09 95.52C118.09 95.49 118.11 95.46 118.11 95.42C118.11 95.4 118.1 95.39 118.1 95.37C118.1 95.32 118.09 95.27 118.07 95.22C118.06 95.17 118.04 95.12 118.02 95.07C118.01 95.06 118.01 95.04 118 95.03L64.05 1.57L76.81 1.57ZM131.45 119.86L9.42 119.86L62.7 27.58L69.07 38.62L29.23 107.63C29.22 107.65 29.21 107.66 29.22 107.67C29.2 107.72 29.18 107.77 29.17 107.82C29.15 107.87 29.14 107.92 29.14 107.97C29.14 107.99 29.13 108 29.13 108.02C29.13 108.04 29.15 108.08 29.15 108.12C29.15 108.18 29.16 108.23 29.18 108.28C29.2 108.33 29.22 108.37 29.24 108.41C29.26 108.46 29.29 108.5 29.32 108.53C29.36 108.57 29.4 108.6 29.44 108.64C29.47 108.66 29.48 108.69 29.51 108.7C29.52 108.71 29.54 108.7 29.55 108.71C29.65 108.77 29.77 108.81 29.9 108.81L137.8 108.81L131.45 119.86ZM101.41 94.64L38.55 94.64L69.98 40.2L101.41 94.64ZM62.7 2.36L115.97 94.64L103.23 94.64L63.39 25.62C63.37 25.61 63.36 25.6 63.36 25.58C63.33 25.54 63.29 25.5 63.26 25.46C63.22 25.42 63.18 25.39 63.14 25.36C63.13 25.35 63.11 25.34 63.1 25.33C63.07 25.32 63.04 25.31 63.01 25.3C62.96 25.28 62.91 25.26 62.86 25.25C62.76 25.24 62.66 25.24 62.56 25.25C62.51 25.26 62.46 25.28 62.41 25.3C62.38 25.31 62.35 25.32 62.32 25.33C62.31 25.34 62.29 25.35 62.28 25.36C62.24 25.39 62.2 25.43 62.16 25.46C62.12 25.49 62.08 25.53 62.06 25.58C62.04 25.59 62.03 25.61 62.03 25.62L8.07 119.08L1.69 108.04L62.7 2.36Z" fill="#FFFFFF" fill-opacity="1.000000" fill-rule="nonzero"/>
	</g>
</svg>
