<svg width="121.218803" height="139.968750" viewBox="0 0 121.219 139.969" fill="none" xmlns="http://www.w3.org/2000/svg" xmlns:xlink="http://www.w3.org/1999/xlink">
	<desc>
			Created with Pixso.
	</desc>
	<defs/>
	<path id="Vector" d="M121.21 34.99L100.52 23.04L81.31 34.13L81.31 11.94L60.6 0L39.91 11.94L39.91 34.12L20.7 23.03L0 34.99L0 58.9L19.2 69.98L0 81.07L0 104.98L20.69 116.93L39.9 105.84L39.9 128.02L60.59 139.96L81.29 128.02L81.29 105.84L100.5 116.93L121.21 104.98L121.21 81.07L102.01 69.98L121.21 58.9L121.21 34.99ZM100.52 24.76L118.98 35.42L81.43 57.17L81.31 35.85L100.52 24.76ZM79.82 36.71L79.94 58.04L61.35 68.8L61.35 24.33L79.82 13.67L79.82 36.71ZM41.4 13.67L59.85 24.33L59.85 68.8L41.4 58.12L41.4 13.67ZM20.69 24.76L39.9 35.85L39.9 57.24L2.23 35.42L20.69 24.76ZM1.48 58.04L1.48 36.72L39.16 58.54L20.7 69.12L1.48 58.04ZM1.48 104.12L1.48 82.8L19.94 93.46L19.94 114.78L1.48 104.12ZM2.23 81.5L21.07 70.63L40.66 59.4L59.11 70.08L20.7 92.16L2.23 81.5ZM59.85 137.81L41.4 127.16L41.4 104.98L59.85 94.32L59.85 137.81ZM41.4 103.26L40.28 103.91L21.44 114.79L21.44 93.47L59.85 71.39L59.85 92.6L41.4 103.26ZM60.6 23.04L42.15 12.38L60.6 1.73L79.06 12.38L60.6 23.04ZM79.81 127.16L61.35 137.81L61.35 94.32L79.81 104.98L79.81 127.16ZM99.77 114.78L80.93 103.9L79.81 103.25L61.35 92.59L61.35 71.38L99.77 93.46L99.77 114.78ZM119.72 104.12L101.27 114.78L101.27 93.28L119.72 82.79L119.72 104.12ZM118.96 81.5L100.36 92.08L62.09 70.09L80.68 59.33L99.03 69.98L99.65 70.34L100.02 70.56L100.14 70.63L118.96 81.5ZM119.72 58.04L100.52 69.12L82.18 58.47L119.73 36.72L119.73 58.04L119.72 58.04Z" fill="#FFFFFF" fill-opacity="1.000000" fill-rule="nonzero"/>
</svg>
