<svg width="138.921875" height="142.000000" viewBox="0 0 138.922 142" fill="none" xmlns="http://www.w3.org/2000/svg" xmlns:xlink="http://www.w3.org/1999/xlink">
	<desc>
			Created with Pixso.
	</desc>
	<defs>
		<clipPath id="clip2_103">
			<rect id="svg" width="138.921875" height="142.000000" fill="white" fill-opacity="0"/>
		</clipPath>
	</defs>
	<g clip-path="url(#clip2_103)">
		<path id="Vector" d="M111.52 13.86C99.1 5.04 84.15 0.51 68.93 0.95C53.71 1.39 39.05 6.78 27.16 16.3C15.28 25.82 6.82 38.95 3.07 53.71C-0.67 68.47 0.49 84.05 6.39 98.09C12.29 112.13 22.6 123.86 35.77 131.51C48.94 139.16 64.24 142.31 79.35 140.49C94.47 138.66 108.58 131.96 119.55 121.39L119.58 121.39L120.15 120.82C122.9 118.06 124.44 114.32 124.44 110.42C124.43 106.52 122.88 102.78 120.13 100.03C117.37 97.27 113.63 95.72 109.73 95.72C105.83 95.71 102.09 97.25 99.33 100L99.33 99.99C93.69 105.51 86.57 109.26 78.84 110.79C71.1 112.32 63.09 111.57 55.78 108.61C48.47 105.66 42.18 100.64 37.67 94.17C33.17 87.7 30.65 80.05 30.43 72.17C30.2 64.29 32.28 56.51 36.41 49.79C40.53 43.07 46.53 37.7 53.66 34.34C60.79 30.97 68.75 29.76 76.56 30.84C84.37 31.93 91.69 35.27 97.63 40.46L99.6 42.44C100.52 43.37 101.04 44.63 101.03 45.94C101.03 47.25 100.5 48.51 99.58 49.43C98.65 50.36 97.39 50.88 96.08 50.89C94.77 50.89 93.51 50.38 92.58 49.46L89.85 46.72L89.75 46.82C89.71 46.69 89.64 46.58 89.54 46.5C84.91 42.99 79.37 40.86 73.58 40.37C67.78 39.88 61.97 41.04 56.81 43.72C51.65 46.4 47.36 50.49 44.43 55.52C41.5 60.54 40.05 66.29 40.26 72.1C40.47 77.91 42.32 83.54 45.6 88.34C48.88 93.14 53.45 96.92 58.79 99.22C64.13 101.53 70.01 102.27 75.75 101.37C81.5 100.47 86.87 97.96 91.24 94.12C92.06 93.2 92.52 92.01 92.51 90.78C92.5 89.54 92.03 88.35 91.2 87.44C89.23 85.31 85.86 85.87 84.19 87.24C81.15 89.72 77.47 91.29 73.57 91.77C69.68 92.26 65.73 91.64 62.17 89.98C58.61 88.33 55.59 85.7 53.45 82.41C51.31 79.12 50.14 75.29 50.08 71.37C50.01 67.45 51.05 63.58 53.07 60.22C55.1 56.86 58.03 54.14 61.53 52.36C65.03 50.58 68.96 49.83 72.86 50.18C76.77 50.53 80.5 51.97 83.63 54.35L83.66 54.33L85.43 56.1C88.19 58.85 91.93 60.39 95.83 60.38C99.73 60.38 103.47 58.83 106.23 56.07C108.98 53.32 110.53 49.58 110.54 45.68C110.54 41.78 109 38.04 106.25 35.28L106.03 35.06C106 34.9 105.92 34.75 105.81 34.64C98.65 27.78 89.62 23.19 79.86 21.45C70.1 19.7 60.04 20.87 50.95 24.82C41.85 28.76 34.12 35.3 28.73 43.62C23.33 51.94 20.52 61.67 20.62 71.58C20.73 81.49 23.76 91.15 29.34 99.35C34.92 107.55 42.79 113.92 51.97 117.66C61.15 121.41 71.23 122.36 80.95 120.4C90.67 118.44 99.59 113.65 106.6 106.64C106.61 106.61 106.63 106.58 106.65 106.54C107.55 105.7 108.74 105.22 109.97 105.21C111.21 105.2 112.41 105.65 113.33 106.47C114.25 107.29 114.83 108.43 114.95 109.66C115.08 110.89 114.74 112.12 114 113.11C104.87 122.44 92.95 128.54 80.05 130.5C67.14 132.46 53.95 130.17 42.46 123.98C30.97 117.79 21.81 108.02 16.36 96.16C10.9 84.3 9.45 70.99 12.23 58.24C15 45.48 21.85 33.98 31.74 25.46C41.63 16.94 54.02 11.86 67.04 11C80.06 10.14 93.02 13.54 103.94 20.68C114.86 27.82 123.17 38.33 127.6 50.61C128.33 52.64 130.04 55.6 133.53 55.38C134.2 55.38 134.87 55.22 135.47 54.92C136.08 54.62 136.6 54.18 137.01 53.64C137.42 53.1 137.69 52.48 137.82 51.81C137.94 51.15 137.91 50.47 137.73 49.82C133.13 35.3 123.93 22.67 111.52 13.86Z" stroke="#FFFFFF" stroke-opacity="1.000000" stroke-width="1.999899" stroke-linejoin="round"/>
	</g>
</svg>
