<svg width="139.890686" height="121.437500" viewBox="0 0 139.891 121.438" fill="none" xmlns="http://www.w3.org/2000/svg" xmlns:xlink="http://www.w3.org/1999/xlink">
	<desc>
			Created with Pixso.
	</desc>
	<defs/>
	<path id="Vector" d="M116.53 101.36C116.54 101.35 116.54 101.33 116.55 101.32C116.57 101.29 116.59 101.26 116.59 101.22C116.6 101.19 116.61 101.15 116.62 101.12C116.63 101.09 116.64 101.06 116.63 101.02C116.63 101 116.64 100.99 116.64 100.97C116.64 100.95 116.63 100.94 116.63 100.92C116.63 100.9 116.62 100.85 116.62 100.82C116.62 100.79 116.6 100.75 116.59 100.72C116.58 100.69 116.57 100.66 116.55 100.62C116.54 100.61 116.54 100.59 116.53 100.58L105.32 81.16L127.74 81.16C127.86 81.15 127.98 81.12 128.09 81.07C128.12 81.05 128.14 81.03 128.17 81.01C128.25 80.96 128.32 80.89 128.37 80.81C128.38 80.79 128.4 80.78 128.42 80.76L139.78 61.09C139.79 61.08 139.79 61.06 139.8 61.05C139.82 61.02 139.83 60.99 139.84 60.95C139.85 60.92 139.86 60.88 139.87 60.85C139.87 60.82 139.88 60.79 139.88 60.75C139.88 60.73 139.89 60.72 139.89 60.7C139.89 60.68 139.88 60.67 139.88 60.65C139.88 60.63 139.87 60.58 139.87 60.55C139.87 60.52 139.85 60.48 139.84 60.45C139.83 60.42 139.81 60.39 139.8 60.35C139.79 60.34 139.79 60.32 139.78 60.31L128.42 40.65C128.4 40.62 128.38 40.6 128.36 40.58C128.33 40.53 128.29 40.49 128.25 40.46C128.21 40.43 128.17 40.4 128.12 40.37C128.08 40.34 128.04 40.32 127.99 40.31C127.94 40.29 127.89 40.28 127.83 40.28C127.8 40.28 127.77 40.26 127.74 40.26L105.32 40.26L116.53 20.83C116.54 20.82 116.54 20.8 116.55 20.79C116.57 20.76 116.59 20.73 116.59 20.69C116.6 20.66 116.61 20.62 116.62 20.59C116.63 20.56 116.64 20.53 116.63 20.49C116.63 20.47 116.64 20.46 116.64 20.44C116.64 20.42 116.63 20.41 116.63 20.39C116.63 20.37 116.62 20.32 116.62 20.29C116.62 20.26 116.6 20.22 116.59 20.19C116.58 20.16 116.57 20.13 116.55 20.09C116.54 20.08 116.54 20.06 116.53 20.05L105.19 0.39C105.17 0.36 105.15 0.34 105.13 0.32C105.1 0.28 105.06 0.24 105.03 0.2C104.99 0.17 104.94 0.14 104.9 0.11C104.86 0.08 104.81 0.06 104.77 0.05C104.72 0.03 104.66 0.02 104.61 0.02C104.58 0.02 104.55 0 104.52 0L81.82 0C81.8 0 81.79 0.01 81.77 0.01C81.75 0.01 81.7 0.02 81.67 0.02L81.56 0.05C81.52 0.06 81.49 0.07 81.47 0.09C81.45 0.1 81.44 0.1 81.43 0.1L81.4 0.13C81.37 0.15 81.34 0.17 81.32 0.19C81.29 0.21 81.26 0.24 81.24 0.27C81.22 0.3 81.2 0.32 81.18 0.35C81.16 0.36 81.15 0.37 81.15 0.39L69.93 19.81L58.71 0.39C58.7 0.36 58.68 0.34 58.65 0.32C58.62 0.28 58.58 0.24 58.54 0.2C58.51 0.17 58.47 0.14 58.42 0.12C58.38 0.09 58.34 0.07 58.29 0.06C58.24 0.04 58.19 0.03 58.13 0.03C58.1 0.03 58.07 0.01 58.04 0.01L35.34 0.01C35.32 0.01 35.31 0.02 35.29 0.02C35.27 0.02 35.22 0.03 35.19 0.03L35.08 0.06C35.05 0.07 35.02 0.08 34.99 0.1C34.98 0.11 34.97 0.11 34.95 0.11C34.94 0.12 34.93 0.13 34.91 0.14C34.88 0.16 34.86 0.18 34.83 0.2C34.8 0.22 34.78 0.25 34.75 0.28C34.73 0.31 34.71 0.33 34.69 0.36C34.68 0.37 34.67 0.38 34.66 0.4L23.32 20.06C23.3 20.09 23.29 20.12 23.29 20.15C23.27 20.2 23.25 20.25 23.24 20.3C23.22 20.4 23.22 20.5 23.24 20.6C23.25 20.66 23.27 20.71 23.29 20.75C23.29 20.79 23.3 20.82 23.32 20.84L34.53 40.27L12.11 40.27C12.09 40.27 12.08 40.28 12.06 40.28C12.04 40.28 11.99 40.29 11.96 40.29L11.85 40.32C11.82 40.33 11.79 40.34 11.76 40.36C11.75 40.37 11.73 40.37 11.72 40.38L11.69 40.41C11.66 40.43 11.64 40.45 11.61 40.47C11.58 40.49 11.56 40.52 11.53 40.55C11.51 40.58 11.49 40.6 11.47 40.63C11.46 40.64 11.45 40.65 11.44 40.67L0.09 60.33C0.07 60.36 0.06 60.39 0.06 60.42C0.03 60.47 0.02 60.52 0.01 60.57C-0.01 60.67 -0.01 60.77 0.01 60.87C0.02 60.93 0.03 60.98 0.06 61.02C0.06 61.06 0.07 61.09 0.09 61.11L11.44 80.78L11.47 80.81C11.49 80.84 11.51 80.87 11.54 80.9C11.58 80.94 11.62 80.97 11.66 81.01C11.69 81.03 11.7 81.06 11.73 81.07C11.74 81.08 11.76 81.08 11.77 81.08C11.88 81.13 12 81.16 12.12 81.17L34.54 81.17L23.34 100.59C23.32 100.62 23.31 100.65 23.31 100.68C23.29 100.73 23.27 100.78 23.26 100.83C23.24 100.93 23.24 101.03 23.26 101.13C23.27 101.19 23.29 101.24 23.31 101.28C23.31 101.32 23.32 101.35 23.34 101.37L34.68 121.04L34.71 121.07C34.73 121.1 34.76 121.13 34.78 121.16C34.82 121.2 34.86 121.23 34.9 121.27C34.93 121.29 34.94 121.32 34.97 121.33C34.98 121.34 35 121.34 35.01 121.34C35.12 121.39 35.24 121.43 35.36 121.43L58.06 121.43C58.19 121.43 58.31 121.39 58.41 121.34C58.44 121.32 58.46 121.3 58.49 121.28C58.58 121.23 58.64 121.16 58.69 121.08C58.7 121.06 58.72 121.05 58.74 121.03L69.96 101.6L81.18 121.03L81.21 121.06C81.23 121.09 81.25 121.12 81.28 121.15C81.32 121.19 81.36 121.22 81.4 121.26C81.43 121.28 81.44 121.31 81.47 121.32C81.48 121.33 81.49 121.33 81.51 121.33C81.61 121.38 81.73 121.42 81.86 121.42L104.56 121.42C104.68 121.42 104.8 121.38 104.91 121.33C104.94 121.31 104.96 121.29 104.99 121.27C105.07 121.22 105.14 121.15 105.19 121.07C105.2 121.05 105.22 121.04 105.24 121.02L116.53 101.36ZM104.05 119.85L83.16 119.85L93.6 101.75L114.5 101.75L104.05 119.85ZM57.56 119.85L36.67 119.85L59.01 81.16L79.91 81.16L57.56 119.85ZM13.43 79.58L23.88 61.48L68.55 61.48L58.1 79.58L13.43 79.58ZM12.07 42.61L22.52 60.7L12.07 78.8L1.62 60.7L12.07 42.61ZM24.87 20.43L35.31 2.34L57.65 41.03L47.21 59.12L24.87 20.43ZM81.81 2.35L92.25 20.44L69.92 59.13L59.47 41.04L81.81 2.35ZM104.05 1.56L114.5 19.65L93.6 19.65L83.16 1.56L104.05 1.56ZM127.3 41.83L137.75 59.92L93.07 59.92L82.63 41.83L127.3 41.83ZM81.26 42.61L91.24 59.91L71.26 59.91L81.26 42.61ZM68.55 59.91L48.57 59.91L58.55 42.61L68.55 59.91ZM69.91 62.27L79.9 79.58L59.91 79.58L69.91 62.27ZM71.27 61.49L92.15 61.49L114.49 100.18L93.59 100.18L71.27 61.49ZM93.97 61.49L137.74 61.49L127.29 79.59L104.41 79.59L93.97 61.49ZM82.63 40.25L93.61 21.22L114.51 21.22L103.52 40.25L82.63 40.25ZM58.55 39.47L36.67 1.56L57.56 1.56L69.01 21.37L58.55 39.47ZM45.84 59.91L23.87 59.91L13.42 41.82L35.39 41.82L45.84 59.91ZM57.19 81.16L35.31 119.07L24.87 100.97L36.3 81.16L57.19 81.16ZM81.26 81.94L92.24 100.96L81.8 119.06L70.81 100.02L81.26 81.94Z" fill="#FFFFFF" fill-opacity="1.000000" fill-rule="nonzero"/>
</svg>
